<?xml version="1.0" encoding="UTF-8" standalone="no"?>
<!-- Created with Inkscape (http://www.inkscape.org/) -->
<svg xmlns:inkscape="http://www.inkscape.org/namespaces/inkscape" xmlns:rdf="http://www.w3.org/1999/02/22-rdf-syntax-ns#" xmlns="http://www.w3.org/2000/svg" xmlns:xlink="http://www.w3.org/1999/xlink" xmlns:ns1="http://sozi.baierouge.fr" xmlns:cc="http://creativecommons.org/ns#" xmlns:dc="http://purl.org/dc/elements/1.1/" xmlns:sodipodi="http://sodipodi.sourceforge.net/DTD/sodipodi-0.dtd" id="svg3077" sodipodi:docname="dog-jumping.svg" inkscape:export-filename="/home/chaunce/Documents/runeman.org/clipart/dog-jumping.png" viewBox="0 0 569.62 350.27" inkscape:export-xdpi="26.859776" version="1.1" inkscape:export-ydpi="26.859776" inkscape:version="0.48.4 r9939">
  <title id="title3134">Dog Jumping</title>
  <sodipodi:namedview id="base" bordercolor="#666666" inkscape:pageshadow="2" inkscape:window-y="28" fit-margin-left="0" pagecolor="#ffffff" fit-margin-top="0" inkscape:window-maximized="1" inkscape:zoom="1" inkscape:window-x="-3" inkscape:window-height="717" showgrid="false" borderopacity="1.0" inkscape:current-layer="layer1" inkscape:cx="460.75935" inkscape:cy="201.85232" fit-margin-right="0" fit-margin-bottom="0" inkscape:window-width="1366" inkscape:pageopacity="0.0" inkscape:document-units="px" />
  <g id="layer1" inkscape:label="Layer 1" inkscape:groupmode="layer" transform="translate(2 -122.91)">
    <g id="g3100">
      <path id="path3018" d="m120.93 123.48 6.364 3.5355 0.7071 12.021v4.9497l7.7782-4.2426-4.2426 4.2426h19.092l-4.2426 2.1213h14.849l4.2426 4.2426-7.0711-0.7071 3.5355 4.2426h10.607l1.4142 2.1213 9.8995 2.1213 28.284 11.314 14.142 7.0711 16.971 11.314 9.1924 4.2426 19.799 8.4853 11.314 4.2426 4.9497 5.6568h6.364s15.822 0.0769 22.627 3.5355c1.4858 0.75511 3.5355 3.5355 3.5355 3.5355h5.6568l4.9498 4.2426 2.1213-1.4142 21.92 4.9497 3.5355 1.5355 20.506 7.7782 5.6568 2 9.8995 3.5355 14.849 7.0711 4.9498 4.2426s11.833-1.4952 17.678-0.7071c5.3928 0.72719 10.281 3.6133 15.556 4.9497 4.8844 1.2375 9.9494 1.6533 14.849 2.8284 7.3987 1.7744 14.417 5.1048 21.92 6.364 9.3097 1.5622 28.284 1.4142 28.284 1.4142l17.678 3.5355 13.435-1.4142 9.1924-5.6569 4.2426-6.364-3.5355-7.7782s7.0063 1.6717 9.1924 4.2426c2.8524 3.3545 3.5355 12.728 3.5355 12.728l-4.2426 7.0711-19.799 7.7782 8.4853 3.5355-21.92-4.9498 4.9497 9.8995-6.364-6.364 1.4142 8.4853c-0.63236-2.8284-5.3227-5.6568-10.607-8.4853l-6.364 2.8284 6.364 4.9498c-2.2052-1.8577-4.9536-3.5342-12.728-3.5355l0.70711 6.364c-0.41538-3.7712-5.2881-7.5425-11.314-11.314l2.8284 9.1924 2.1213 5.6569c-4.7837-3.7712-7.2397-7.5425-19.092-11.314l-19.092-6.364-24.749-3.5355 16.971 25.456 9.1924 7.7782 3.5355 14.849c1.5669 2.7062 1.7786 6.4967 7.7782 5.6568l-7.7782 2.1213c4.2426 5.0377 8.4853 5.5159 12.728 4.9498l-10.607 5.6568c3.0641 2.7669 6.1283 4.7275 9.1924 2.8284l-7.0711 2.1213c3.2998 3.1718 6.5997 3.8576 9.8995 4.2426l-10.607 2.1213 14.142 13.435 11.314 7.7782 12.728 6.364 4.2426 0.70711 4.9498 10.607 15.556 40.305 5.6568 7.7782 5.1924 4.8284-7.3137 10.021h-5.6568l-16.971-45.255 17.678 46.669-9.1924 13.435c-12.893 4.4333-24.421 3.4048-34.648-2.8284l14.142-15.556 12.021-3.5355-13.435-31.113-7.7782-10.607-24.749-15.556-28.284-15.556-25.456-20.506-21.92-25.456-9.1924-6.364-19.799 4.9498-7.7782-4.9498-67.175-5.6569-55.154-2.1213s-31.113-4.9497-34.648-10.607c-3.54-5.61-14.85-9.85-14.85-9.85l-20.51-18.39-11.31-23.33-9.9-11.32c-3.7176 0.39376-4.2509 3.1758-4.2426 6.364-0.7596-10.454-6.9822-17.483-10.607-25.456l-10.607-9.1924-2.1213 5.6568-2.8284-1.4142c-1.8644 2.1213-3.6632 4.2426 0 6.364l-6.364-8.4853-19.092-7.0711-27.577 3.5355-16.971-1.4142-13.435 5.6568-11.314-9.1924 5.6568-4.9498-2.1213-5.6568 7.7782 4.9497 24.749-8.4853-28.284 2.8284h-16.263l-8.4853-9.8995-2.1213-7.7782 31.113-9.8995 7.7782-5.6568 2.8284-4.2426-0.7071-4.9498 14.142-8.4853 10.607-6.364 15.556-2.4749 18.385-1.7678z" sodipodi:nodetypes="cccccccccccccccccccccccscccccccccccssssccccccscccccccccccccccccccccccccccccccccccccccccccccccccccccccccsccccccccccccccccccccccccccccccccc" style="stroke:#000000;stroke-width:1px;fill:#fff" inkscape:connector-curvature="0" />
      <path id="path2997" d="m149.07 208.56c-5.6426 3.6886-3 20-3 20s4.3264 17.237 11 22c4.1058 2.9303 15 2 15 2l21 4-18 16-20 11-8 10 1 11 15 13s-0.0709 3.6802 1 5c3.199 3.9426 14 6 14 6l13-2 6-10s-6.7738-9.8352-12-12c-4.3114-1.7859-14 0-14 0l-2-5 58-25s12.055 1.1625 15-3c2.7227-3.8483-2-14-2-14s-8.0952-22.199-17-29c-20.306-15.51-52.613-33.981-74-20z" sodipodi:nodetypes="scscccccccscccscccscss" style="stroke:#1a1a1a;stroke-width:1px;fill:#fff" inkscape:connector-curvature="0" />
      <path id="path3020" d="m476.6 363.19 22.627 19.799" style="stroke:#000000;stroke-width:1px;fill:none" inkscape:connector-curvature="0" />
      <path id="path3022" d="m512.67 390.06 16.971 38.184" style="stroke:#000000;stroke-width:1px;fill:none" inkscape:connector-curvature="0" />
      <path id="path3024" d="m477.31 364.6 26.87 20.506 6.364 6.364 9.8995 32.527 12.021 32.527" style="stroke:#4d4d4d;stroke-width:1px;fill:none" inkscape:connector-curvature="0" />
    </g>
  </g>
  <metadata>
    <rdf:RDF>
      <cc:Work>
        <dc:format>image/svg+xml</dc:format>
        <dc:type rdf:resource="http://purl.org/dc/dcmitype/StillImage" />
        <cc:license rdf:resource="http://creativecommons.org/licenses/publicdomain/" />
        <dc:publisher>
          <cc:Agent rdf:about="http://openclipart.org/">
            <dc:title>Openclipart</dc:title>
          </cc:Agent>
        </dc:publisher>
      </cc:Work>
      <cc:License rdf:about="http://creativecommons.org/licenses/publicdomain/">
        <cc:permits rdf:resource="http://creativecommons.org/ns#Reproduction" />
        <cc:permits rdf:resource="http://creativecommons.org/ns#Distribution" />
        <cc:permits rdf:resource="http://creativecommons.org/ns#DerivativeWorks" />
      </cc:License>
    </rdf:RDF>
  </metadata>
</svg>
